<svg width="42" height="42" viewBox="0 0 42 42" fill="none" xmlns="http://www.w3.org/2000/svg">
<mask id="path-1-outside-1_22_15596" maskUnits="userSpaceOnUse" x="1.0459" y="7.24365" width="23" height="34" fill="black">
<rect fill="white" x="1.0459" y="7.24365" width="23" height="34"/>
<path d="M8.73833 13.3386C8.73709 14.3078 9.09214 15.2437 9.73595 15.9682C9.32787 15.9541 8.92156 16.0283 8.54484 16.1858C8.16812 16.3433 7.82989 16.5804 7.5533 16.8808C7.52396 16.911 7.49764 16.944 7.47473 16.9793L2.5208 24.6189C2.20291 25.008 2.03467 25.498 2.04648 26.0003C2.05829 26.5027 2.24937 26.9842 2.5852 27.358C2.76474 27.5512 2.98136 27.7063 3.22214 27.8139C3.46292 27.9216 3.72292 27.9796 3.98663 27.9846C4.24794 27.9798 4.50551 27.9216 4.74352 27.8137C4.98153 27.7057 5.19495 27.5502 5.37066 27.3567C5.39975 27.3267 5.42585 27.2939 5.44859 27.2588L7.99447 23.3366V27.4829L5.84854 38.0516C5.7553 38.5408 5.85845 39.0471 6.13566 39.4609C6.41288 39.8747 6.84188 40.1627 7.32982 40.2626L7.53398 40.2986C7.76647 40.3384 8.00456 40.3317 8.23441 40.2787C8.46427 40.2258 8.68131 40.1277 8.87294 39.9901C9.29029 39.6917 9.574 39.2415 9.66317 38.7362L11.6417 29.4685H13.6897L15.473 39.2347C15.5229 39.4306 15.6135 39.6138 15.7387 39.7724C15.864 39.9311 16.0212 40.0616 16.2001 40.1556C16.572 40.3526 16.9876 40.4523 17.4084 40.4455C17.6645 40.4477 17.9196 40.4117 18.1651 40.3385C19.1956 40.0165 19.4287 38.5475 19.2097 37.649L17.3588 27.4894V18.2101L23.4507 11.2545C23.4649 11.2377 23.4784 11.221 23.4907 11.2036C23.8481 10.6837 23.9954 10.0476 23.9028 9.42347C23.8691 9.23077 23.7954 9.04726 23.6865 8.88476C23.5776 8.72226 23.4358 8.58437 23.2704 8.47995C22.3597 7.90805 21.1064 8.47287 20.6028 9.12721L16.4024 13.45C16.4024 13.4126 16.4075 13.3759 16.4075 13.3386C16.419 12.8278 16.3283 12.3199 16.1408 11.8447C15.9532 11.3694 15.6726 10.9365 15.3154 10.5712C14.9583 10.2059 14.5317 9.91564 14.0608 9.71749C13.5899 9.51933 13.0841 9.41725 12.5733 9.41725C12.0624 9.41725 11.5566 9.51933 11.0857 9.71749C10.6148 9.91564 10.1882 10.2059 9.83106 10.5712C9.47388 10.9365 9.19329 11.3694 9.00575 11.8447C8.81821 12.3199 8.72751 12.8278 8.73898 13.3386H8.73833ZM21.5547 9.99731C21.5779 9.97376 21.5994 9.94858 21.6191 9.92195C21.7833 9.69203 22.3546 9.42669 22.5851 9.57353C22.5974 9.58126 22.6231 9.59736 22.6386 9.67722C22.6625 9.94263 22.5984 10.2085 22.4563 10.434L16.2304 17.5428C16.1273 17.6604 16.0706 17.8115 16.0707 17.9679V27.548C16.0706 27.5866 16.074 27.6252 16.081 27.6632L17.9526 37.917C18.0085 38.1168 18.0222 38.326 17.9927 38.5314C17.9632 38.7368 17.8912 38.9337 17.7813 39.1097C17.4669 39.1959 17.1323 39.169 16.8358 39.0337C16.8005 39.0153 16.7669 38.9937 16.7353 38.9693L14.8631 28.7085C14.836 28.5602 14.7577 28.4262 14.6419 28.3297C14.5261 28.2332 14.3801 28.1804 14.2294 28.1804H11.1213C10.9738 28.1804 10.8308 28.231 10.7162 28.3237C10.6016 28.4164 10.5222 28.5457 10.4914 28.6898L8.40021 38.4947C8.37285 38.6724 8.27631 38.8322 8.13165 38.9391C8.02444 39.0173 7.89068 39.0502 7.7594 39.0305L7.55524 38.9938C7.40455 38.9554 7.27454 38.8603 7.19243 38.7282C7.11031 38.5962 7.08247 38.4375 7.11471 38.2854L9.26902 27.6755C9.27752 27.6331 9.28184 27.5899 9.2819 27.5467V21.1617C9.28202 21.0227 9.23719 20.8874 9.15409 20.776C9.071 20.6647 8.9541 20.5831 8.82086 20.5436C8.68762 20.5042 8.54518 20.5088 8.41481 20.557C8.28444 20.6051 8.17313 20.6941 8.09752 20.8107L4.40525 26.4995C4.29572 26.6166 4.1454 26.6871 3.98534 26.6965C3.8938 26.6906 3.80436 26.6666 3.72221 26.6258C3.64005 26.585 3.56684 26.5283 3.50682 26.4589C3.11396 26.0551 3.49007 25.4787 3.58539 25.3434L8.52194 17.7361C8.69343 17.5584 8.9035 17.4225 9.1359 17.3389C9.3683 17.2554 9.6168 17.2265 9.86218 17.2543H12.448C12.4905 17.2543 12.5324 17.2608 12.5768 17.2608C12.6212 17.2608 12.6618 17.2556 12.7056 17.2543H14.2333C14.3192 17.2546 14.4044 17.2376 14.4837 17.2044C14.563 17.1712 14.6349 17.1225 14.695 17.0611L21.5547 9.99731ZM12.5729 10.7057C13.2505 10.7282 13.8934 11.011 14.3678 11.4953C14.8421 11.9797 15.1115 12.6283 15.1198 13.3062C15.1281 13.9841 14.8747 14.6391 14.4123 15.1349C13.9499 15.6307 13.3142 15.9292 12.6373 15.9682H12.5085C11.8317 15.9292 11.1959 15.6307 10.7336 15.1349C10.2712 14.6391 10.0178 13.9841 10.0261 13.3062C10.0344 12.6283 10.3037 11.9797 10.7781 11.4953C11.2525 11.011 11.8953 10.7282 12.5729 10.7057Z"/>
</mask>
<path d="M8.73833 13.3386C8.73709 14.3078 9.09214 15.2437 9.73595 15.9682C9.32787 15.9541 8.92156 16.0283 8.54484 16.1858C8.16812 16.3433 7.82989 16.5804 7.5533 16.8808C7.52396 16.911 7.49764 16.944 7.47473 16.9793L2.5208 24.6189C2.20291 25.008 2.03467 25.498 2.04648 26.0003C2.05829 26.5027 2.24937 26.9842 2.5852 27.358C2.76474 27.5512 2.98136 27.7063 3.22214 27.8139C3.46292 27.9216 3.72292 27.9796 3.98663 27.9846C4.24794 27.9798 4.50551 27.9216 4.74352 27.8137C4.98153 27.7057 5.19495 27.5502 5.37066 27.3567C5.39975 27.3267 5.42585 27.2939 5.44859 27.2588L7.99447 23.3366V27.4829L5.84854 38.0516C5.7553 38.5408 5.85845 39.0471 6.13566 39.4609C6.41288 39.8747 6.84188 40.1627 7.32982 40.2626L7.53398 40.2986C7.76647 40.3384 8.00456 40.3317 8.23441 40.2787C8.46427 40.2258 8.68131 40.1277 8.87294 39.9901C9.29029 39.6917 9.574 39.2415 9.66317 38.7362L11.6417 29.4685H13.6897L15.473 39.2347C15.5229 39.4306 15.6135 39.6138 15.7387 39.7724C15.864 39.9311 16.0212 40.0616 16.2001 40.1556C16.572 40.3526 16.9876 40.4523 17.4084 40.4455C17.6645 40.4477 17.9196 40.4117 18.1651 40.3385C19.1956 40.0165 19.4287 38.5475 19.2097 37.649L17.3588 27.4894V18.2101L23.4507 11.2545C23.4649 11.2377 23.4784 11.221 23.4907 11.2036C23.8481 10.6837 23.9954 10.0476 23.9028 9.42347C23.8691 9.23077 23.7954 9.04726 23.6865 8.88476C23.5776 8.72226 23.4358 8.58437 23.2704 8.47995C22.3597 7.90805 21.1064 8.47287 20.6028 9.12721L16.4024 13.45C16.4024 13.4126 16.4075 13.3759 16.4075 13.3386C16.419 12.8278 16.3283 12.3199 16.1408 11.8447C15.9532 11.3694 15.6726 10.9365 15.3154 10.5712C14.9583 10.2059 14.5317 9.91564 14.0608 9.71749C13.5899 9.51933 13.0841 9.41725 12.5733 9.41725C12.0624 9.41725 11.5566 9.51933 11.0857 9.71749C10.6148 9.91564 10.1882 10.2059 9.83106 10.5712C9.47388 10.9365 9.19329 11.3694 9.00575 11.8447C8.81821 12.3199 8.72751 12.8278 8.73898 13.3386H8.73833ZM21.5547 9.99731C21.5779 9.97376 21.5994 9.94858 21.6191 9.92195C21.7833 9.69203 22.3546 9.42669 22.5851 9.57353C22.5974 9.58126 22.6231 9.59736 22.6386 9.67722C22.6625 9.94263 22.5984 10.2085 22.4563 10.434L16.2304 17.5428C16.1273 17.6604 16.0706 17.8115 16.0707 17.9679V27.548C16.0706 27.5866 16.074 27.6252 16.081 27.6632L17.9526 37.917C18.0085 38.1168 18.0222 38.326 17.9927 38.5314C17.9632 38.7368 17.8912 38.9337 17.7813 39.1097C17.4669 39.1959 17.1323 39.169 16.8358 39.0337C16.8005 39.0153 16.7669 38.9937 16.7353 38.9693L14.8631 28.7085C14.836 28.5602 14.7577 28.4262 14.6419 28.3297C14.5261 28.2332 14.3801 28.1804 14.2294 28.1804H11.1213C10.9738 28.1804 10.8308 28.231 10.7162 28.3237C10.6016 28.4164 10.5222 28.5457 10.4914 28.6898L8.40021 38.4947C8.37285 38.6724 8.27631 38.8322 8.13165 38.9391C8.02444 39.0173 7.89068 39.0502 7.7594 39.0305L7.55524 38.9938C7.40455 38.9554 7.27454 38.8603 7.19243 38.7282C7.11031 38.5962 7.08247 38.4375 7.11471 38.2854L9.26902 27.6755C9.27752 27.6331 9.28184 27.5899 9.2819 27.5467V21.1617C9.28202 21.0227 9.23719 20.8874 9.15409 20.776C9.071 20.6647 8.9541 20.5831 8.82086 20.5436C8.68762 20.5042 8.54518 20.5088 8.41481 20.557C8.28444 20.6051 8.17313 20.6941 8.09752 20.8107L4.40525 26.4995C4.29572 26.6166 4.1454 26.6871 3.98534 26.6965C3.8938 26.6906 3.80436 26.6666 3.72221 26.6258C3.64005 26.585 3.56684 26.5283 3.50682 26.4589C3.11396 26.0551 3.49007 25.4787 3.58539 25.3434L8.52194 17.7361C8.69343 17.5584 8.9035 17.4225 9.1359 17.3389C9.3683 17.2554 9.6168 17.2265 9.86218 17.2543H12.448C12.4905 17.2543 12.5324 17.2608 12.5768 17.2608C12.6212 17.2608 12.6618 17.2556 12.7056 17.2543H14.2333C14.3192 17.2546 14.4044 17.2376 14.4837 17.2044C14.563 17.1712 14.6349 17.1225 14.695 17.0611L21.5547 9.99731ZM12.5729 10.7057C13.2505 10.7282 13.8934 11.011 14.3678 11.4953C14.8421 11.9797 15.1115 12.6283 15.1198 13.3062C15.1281 13.9841 14.8747 14.6391 14.4123 15.1349C13.9499 15.6307 13.3142 15.9292 12.6373 15.9682H12.5085C11.8317 15.9292 11.1959 15.6307 10.7336 15.1349C10.2712 14.6391 10.0178 13.9841 10.0261 13.3062C10.0344 12.6283 10.3037 11.9797 10.7781 11.4953C11.2525 11.011 11.8953 10.7282 12.5729 10.7057Z" fill="#01CD99"/>
<path d="M8.73833 13.3386C8.73709 14.3078 9.09214 15.2437 9.73595 15.9682C9.32787 15.9541 8.92156 16.0283 8.54484 16.1858C8.16812 16.3433 7.82989 16.5804 7.5533 16.8808C7.52396 16.911 7.49764 16.944 7.47473 16.9793L2.5208 24.6189C2.20291 25.008 2.03467 25.498 2.04648 26.0003C2.05829 26.5027 2.24937 26.9842 2.5852 27.358C2.76474 27.5512 2.98136 27.7063 3.22214 27.8139C3.46292 27.9216 3.72292 27.9796 3.98663 27.9846C4.24794 27.9798 4.50551 27.9216 4.74352 27.8137C4.98153 27.7057 5.19495 27.5502 5.37066 27.3567C5.39975 27.3267 5.42585 27.2939 5.44859 27.2588L7.99447 23.3366V27.4829L5.84854 38.0516C5.7553 38.5408 5.85845 39.0471 6.13566 39.4609C6.41288 39.8747 6.84188 40.1627 7.32982 40.2626L7.53398 40.2986C7.76647 40.3384 8.00456 40.3317 8.23441 40.2787C8.46427 40.2258 8.68131 40.1277 8.87294 39.9901C9.29029 39.6917 9.574 39.2415 9.66317 38.7362L11.6417 29.4685H13.6897L15.473 39.2347C15.5229 39.4306 15.6135 39.6138 15.7387 39.7724C15.864 39.9311 16.0212 40.0616 16.2001 40.1556C16.572 40.3526 16.9876 40.4523 17.4084 40.4455C17.6645 40.4477 17.9196 40.4117 18.1651 40.3385C19.1956 40.0165 19.4287 38.5475 19.2097 37.649L17.3588 27.4894V18.2101L23.4507 11.2545C23.4649 11.2377 23.4784 11.221 23.4907 11.2036C23.8481 10.6837 23.9954 10.0476 23.9028 9.42347C23.8691 9.23077 23.7954 9.04726 23.6865 8.88476C23.5776 8.72226 23.4358 8.58437 23.2704 8.47995C22.3597 7.90805 21.1064 8.47287 20.6028 9.12721L16.4024 13.45C16.4024 13.4126 16.4075 13.3759 16.4075 13.3386C16.419 12.8278 16.3283 12.3199 16.1408 11.8447C15.9532 11.3694 15.6726 10.9365 15.3154 10.5712C14.9583 10.2059 14.5317 9.91564 14.0608 9.71749C13.5899 9.51933 13.0841 9.41725 12.5733 9.41725C12.0624 9.41725 11.5566 9.51933 11.0857 9.71749C10.6148 9.91564 10.1882 10.2059 9.83106 10.5712C9.47388 10.9365 9.19329 11.3694 9.00575 11.8447C8.81821 12.3199 8.72751 12.8278 8.73898 13.3386H8.73833ZM21.5547 9.99731C21.5779 9.97376 21.5994 9.94858 21.6191 9.92195C21.7833 9.69203 22.3546 9.42669 22.5851 9.57353C22.5974 9.58126 22.6231 9.59736 22.6386 9.67722C22.6625 9.94263 22.5984 10.2085 22.4563 10.434L16.2304 17.5428C16.1273 17.6604 16.0706 17.8115 16.0707 17.9679V27.548C16.0706 27.5866 16.074 27.6252 16.081 27.6632L17.9526 37.917C18.0085 38.1168 18.0222 38.326 17.9927 38.5314C17.9632 38.7368 17.8912 38.9337 17.7813 39.1097C17.4669 39.1959 17.1323 39.169 16.8358 39.0337C16.8005 39.0153 16.7669 38.9937 16.7353 38.9693L14.8631 28.7085C14.836 28.5602 14.7577 28.4262 14.6419 28.3297C14.5261 28.2332 14.3801 28.1804 14.2294 28.1804H11.1213C10.9738 28.1804 10.8308 28.231 10.7162 28.3237C10.6016 28.4164 10.5222 28.5457 10.4914 28.6898L8.40021 38.4947C8.37285 38.6724 8.27631 38.8322 8.13165 38.9391C8.02444 39.0173 7.89068 39.0502 7.7594 39.0305L7.55524 38.9938C7.40455 38.9554 7.27454 38.8603 7.19243 38.7282C7.11031 38.5962 7.08247 38.4375 7.11471 38.2854L9.26902 27.6755C9.27752 27.6331 9.28184 27.5899 9.2819 27.5467V21.1617C9.28202 21.0227 9.23719 20.8874 9.15409 20.776C9.071 20.6647 8.9541 20.5831 8.82086 20.5436C8.68762 20.5042 8.54518 20.5088 8.41481 20.557C8.28444 20.6051 8.17313 20.6941 8.09752 20.8107L4.40525 26.4995C4.29572 26.6166 4.1454 26.6871 3.98534 26.6965C3.8938 26.6906 3.80436 26.6666 3.72221 26.6258C3.64005 26.585 3.56684 26.5283 3.50682 26.4589C3.11396 26.0551 3.49007 25.4787 3.58539 25.3434L8.52194 17.7361C8.69343 17.5584 8.9035 17.4225 9.1359 17.3389C9.3683 17.2554 9.6168 17.2265 9.86218 17.2543H12.448C12.4905 17.2543 12.5324 17.2608 12.5768 17.2608C12.6212 17.2608 12.6618 17.2556 12.7056 17.2543H14.2333C14.3192 17.2546 14.4044 17.2376 14.4837 17.2044C14.563 17.1712 14.6349 17.1225 14.695 17.0611L21.5547 9.99731ZM12.5729 10.7057C13.2505 10.7282 13.8934 11.011 14.3678 11.4953C14.8421 11.9797 15.1115 12.6283 15.1198 13.3062C15.1281 13.9841 14.8747 14.6391 14.4123 15.1349C13.9499 15.6307 13.3142 15.9292 12.6373 15.9682H12.5085C11.8317 15.9292 11.1959 15.6307 10.7336 15.1349C10.2712 14.6391 10.0178 13.9841 10.0261 13.3062C10.0344 12.6283 10.3037 11.9797 10.7781 11.4953C11.2525 11.011 11.8953 10.7282 12.5729 10.7057Z" stroke="#01CD99" stroke-width="0.14732" mask="url(#path-1-outside-1_22_15596)"/>
<mask id="path-2-outside-2_22_15596" maskUnits="userSpaceOnUse" x="17.7881" y="7.24365" width="23" height="34" fill="black">
<rect fill="white" x="17.7881" y="7.24365" width="23" height="34"/>
<path d="M24.3002 16.8806C24.271 16.911 24.2447 16.944 24.2216 16.9791L19.2625 24.6194C18.9449 25.0085 18.7769 25.4983 18.7887 26.0005C18.8005 26.5026 18.9914 26.984 19.3269 27.3578C19.5044 27.5503 19.7198 27.7039 19.9597 27.809C20.1995 27.914 20.4585 27.9683 20.7203 27.9683C20.9821 27.9683 21.2411 27.914 21.4809 27.809C21.7207 27.7039 21.9362 27.5503 22.1137 27.3578C22.1432 27.3278 22.1695 27.2948 22.1922 27.2593L24.7381 23.3371V27.4834L22.5922 38.052C22.4991 38.5412 22.6024 39.0473 22.8796 39.461C23.1568 39.8746 23.5857 40.1625 24.0735 40.2624L24.277 40.2991C24.5096 40.3387 24.7477 40.3319 24.9777 40.2789C25.2076 40.226 25.4248 40.128 25.6166 39.9906C26.0339 39.6923 26.3175 39.242 26.4062 38.7367L28.3846 29.4683H30.4327L32.2167 39.2358C32.2667 39.4316 32.3574 39.6147 32.4828 39.7733C32.6081 39.9318 32.7654 40.0623 32.9444 40.1561C33.3169 40.3539 33.7335 40.4539 34.1552 40.4466C34.4113 40.4488 34.6664 40.4129 34.912 40.3403C35.9424 40.0183 36.1756 38.5492 35.9572 37.6508L34.1037 27.4898V18.2099L40.195 11.2543C40.2092 11.2382 40.2227 11.2215 40.2349 11.2047C40.5927 10.6854 40.7402 10.0497 40.6478 9.42588C40.6143 9.23283 40.5407 9.04895 40.4318 8.8861C40.3228 8.72326 40.181 8.58506 40.0153 8.48043C39.1053 7.90788 37.8514 8.4727 37.3477 9.12447L33.5247 13.0621C33.4819 12.0513 33.0409 11.0985 32.298 10.4117C31.5551 9.72488 30.5706 9.35993 29.5596 9.39651C28.5485 9.43309 27.593 9.86822 26.9016 10.6069C26.2103 11.3456 25.8393 12.3278 25.8697 13.339C25.8686 14.3071 26.2229 15.2419 26.8654 15.9661H26.6077C26.1793 15.9374 25.7499 16.0046 25.3507 16.1628C24.9515 16.321 24.5926 16.5662 24.3002 16.8806ZM29.7043 10.7043C30.391 10.717 31.0446 11.0015 31.5219 11.4954C31.9991 11.9893 32.261 12.6523 32.2502 13.339C32.2502 13.8861 32.0823 14.4201 31.7691 14.8686L31.1637 15.4914C30.758 15.7874 30.2719 15.9529 29.77 15.9661H29.6412C28.9656 15.9254 28.3317 15.6263 27.8707 15.1307C27.4098 14.6352 27.1573 13.9812 27.1656 13.3045C27.1739 12.6278 27.4423 11.9802 27.9152 11.4961C28.3881 11.012 29.0292 10.7284 29.7056 10.7043H29.7043ZM29.5703 17.2542C29.6154 17.2542 29.6592 17.2612 29.7043 17.2612C29.7494 17.2612 29.7932 17.2561 29.8376 17.2542H30.9737C31.0598 17.2545 31.145 17.2376 31.2245 17.2044C31.3039 17.1712 31.3758 17.1224 31.4361 17.0609L32.0235 16.4562C32.3026 16.2368 32.5507 15.9805 32.7609 15.6943L38.2996 9.99714C38.3232 9.97389 38.3447 9.94869 38.364 9.92179C38.5282 9.69315 39.0989 9.42717 39.3301 9.57336C39.3423 9.58109 39.3681 9.59719 39.3835 9.6777C39.4074 9.94311 39.3434 10.209 39.2013 10.4344L32.9753 17.5433C32.8724 17.6608 32.8156 17.8116 32.8156 17.9677V27.5478C32.8156 27.5867 32.819 27.6255 32.8259 27.6637L34.6975 37.9168C34.7534 38.1168 34.7669 38.3262 34.7372 38.5317C34.7074 38.7372 34.6351 38.9342 34.5249 39.1102C34.211 39.1959 33.8769 39.169 33.5807 39.0342C33.5451 39.0147 33.5112 38.9921 33.4796 38.9666L31.6074 28.7084C31.5803 28.5601 31.502 28.426 31.3862 28.3295C31.2704 28.233 31.1244 28.1802 30.9737 28.1802H27.8662C27.7188 28.1802 27.5758 28.2308 27.4611 28.3235C27.3465 28.4162 27.2671 28.5455 27.2363 28.6897L25.1451 38.4951C25.1175 38.6726 25.021 38.8321 24.8766 38.9389C24.7695 39.0174 24.6356 39.0503 24.5043 39.0303L24.3008 38.9943C24.15 38.956 24.0198 38.8609 23.9376 38.7289C23.8554 38.5968 23.8274 38.438 23.8596 38.2858L26.0146 27.6753C26.0231 27.6329 26.0274 27.5898 26.0275 27.5465V21.1615C26.0275 21.0226 25.9825 20.8874 25.8994 20.7761C25.8162 20.6649 25.6993 20.5834 25.5661 20.544C25.4329 20.5046 25.2905 20.5093 25.1602 20.5575C25.0299 20.6056 24.9187 20.6946 24.8431 20.8112L21.1515 26.4993C21.0938 26.5636 21.0227 26.6143 20.9431 26.6477C20.8635 26.6812 20.7774 26.6965 20.6912 26.6927C20.6049 26.6889 20.5206 26.666 20.4443 26.6256C20.368 26.5853 20.3015 26.5285 20.2498 26.4594C19.857 26.0556 20.2331 25.4785 20.3284 25.3439L25.2649 17.7359C25.4364 17.5582 25.6465 17.4223 25.8789 17.3388C26.1113 17.2552 26.3598 17.2263 26.6052 17.2542H29.5703Z"/>
</mask>
<path d="M24.3002 16.8806C24.271 16.911 24.2447 16.944 24.2216 16.9791L19.2625 24.6194C18.9449 25.0085 18.7769 25.4983 18.7887 26.0005C18.8005 26.5026 18.9914 26.984 19.3269 27.3578C19.5044 27.5503 19.7198 27.7039 19.9597 27.809C20.1995 27.914 20.4585 27.9683 20.7203 27.9683C20.9821 27.9683 21.2411 27.914 21.4809 27.809C21.7207 27.7039 21.9362 27.5503 22.1137 27.3578C22.1432 27.3278 22.1695 27.2948 22.1922 27.2593L24.7381 23.3371V27.4834L22.5922 38.052C22.4991 38.5412 22.6024 39.0473 22.8796 39.461C23.1568 39.8746 23.5857 40.1625 24.0735 40.2624L24.277 40.2991C24.5096 40.3387 24.7477 40.3319 24.9777 40.2789C25.2076 40.226 25.4248 40.128 25.6166 39.9906C26.0339 39.6923 26.3175 39.242 26.4062 38.7367L28.3846 29.4683H30.4327L32.2167 39.2358C32.2667 39.4316 32.3574 39.6147 32.4828 39.7733C32.6081 39.9318 32.7654 40.0623 32.9444 40.1561C33.3169 40.3539 33.7335 40.4539 34.1552 40.4466C34.4113 40.4488 34.6664 40.4129 34.912 40.3403C35.9424 40.0183 36.1756 38.5492 35.9572 37.6508L34.1037 27.4898V18.2099L40.195 11.2543C40.2092 11.2382 40.2227 11.2215 40.2349 11.2047C40.5927 10.6854 40.7402 10.0497 40.6478 9.42588C40.6143 9.23283 40.5407 9.04895 40.4318 8.8861C40.3228 8.72326 40.181 8.58506 40.0153 8.48043C39.1053 7.90788 37.8514 8.4727 37.3477 9.12447L33.5247 13.0621C33.4819 12.0513 33.0409 11.0985 32.298 10.4117C31.5551 9.72488 30.5706 9.35993 29.5596 9.39651C28.5485 9.43309 27.593 9.86822 26.9016 10.6069C26.2103 11.3456 25.8393 12.3278 25.8697 13.339C25.8686 14.3071 26.2229 15.2419 26.8654 15.9661H26.6077C26.1793 15.9374 25.7499 16.0046 25.3507 16.1628C24.9515 16.321 24.5926 16.5662 24.3002 16.8806ZM29.7043 10.7043C30.391 10.717 31.0446 11.0015 31.5219 11.4954C31.9991 11.9893 32.261 12.6523 32.2502 13.339C32.2502 13.8861 32.0823 14.4201 31.7691 14.8686L31.1637 15.4914C30.758 15.7874 30.2719 15.9529 29.77 15.9661H29.6412C28.9656 15.9254 28.3317 15.6263 27.8707 15.1307C27.4098 14.6352 27.1573 13.9812 27.1656 13.3045C27.1739 12.6278 27.4423 11.9802 27.9152 11.4961C28.3881 11.012 29.0292 10.7284 29.7056 10.7043H29.7043ZM29.5703 17.2542C29.6154 17.2542 29.6592 17.2612 29.7043 17.2612C29.7494 17.2612 29.7932 17.2561 29.8376 17.2542H30.9737C31.0598 17.2545 31.145 17.2376 31.2245 17.2044C31.3039 17.1712 31.3758 17.1224 31.4361 17.0609L32.0235 16.4562C32.3026 16.2368 32.5507 15.9805 32.7609 15.6943L38.2996 9.99714C38.3232 9.97389 38.3447 9.94869 38.364 9.92179C38.5282 9.69315 39.0989 9.42717 39.3301 9.57336C39.3423 9.58109 39.3681 9.59719 39.3835 9.6777C39.4074 9.94311 39.3434 10.209 39.2013 10.4344L32.9753 17.5433C32.8724 17.6608 32.8156 17.8116 32.8156 17.9677V27.5478C32.8156 27.5867 32.819 27.6255 32.8259 27.6637L34.6975 37.9168C34.7534 38.1168 34.7669 38.3262 34.7372 38.5317C34.7074 38.7372 34.6351 38.9342 34.5249 39.1102C34.211 39.1959 33.8769 39.169 33.5807 39.0342C33.5451 39.0147 33.5112 38.9921 33.4796 38.9666L31.6074 28.7084C31.5803 28.5601 31.502 28.426 31.3862 28.3295C31.2704 28.233 31.1244 28.1802 30.9737 28.1802H27.8662C27.7188 28.1802 27.5758 28.2308 27.4611 28.3235C27.3465 28.4162 27.2671 28.5455 27.2363 28.6897L25.1451 38.4951C25.1175 38.6726 25.021 38.8321 24.8766 38.9389C24.7695 39.0174 24.6356 39.0503 24.5043 39.0303L24.3008 38.9943C24.15 38.956 24.0198 38.8609 23.9376 38.7289C23.8554 38.5968 23.8274 38.438 23.8596 38.2858L26.0146 27.6753C26.0231 27.6329 26.0274 27.5898 26.0275 27.5465V21.1615C26.0275 21.0226 25.9825 20.8874 25.8994 20.7761C25.8162 20.6649 25.6993 20.5834 25.5661 20.544C25.4329 20.5046 25.2905 20.5093 25.1602 20.5575C25.0299 20.6056 24.9187 20.6946 24.8431 20.8112L21.1515 26.4993C21.0938 26.5636 21.0227 26.6143 20.9431 26.6477C20.8635 26.6812 20.7774 26.6965 20.6912 26.6927C20.6049 26.6889 20.5206 26.666 20.4443 26.6256C20.368 26.5853 20.3015 26.5285 20.2498 26.4594C19.857 26.0556 20.2331 25.4785 20.3284 25.3439L25.2649 17.7359C25.4364 17.5582 25.6465 17.4223 25.8789 17.3388C26.1113 17.2552 26.3598 17.2263 26.6052 17.2542H29.5703Z" fill="#01CD99"/>
<path d="M24.3002 16.8806C24.271 16.911 24.2447 16.944 24.2216 16.9791L19.2625 24.6194C18.9449 25.0085 18.7769 25.4983 18.7887 26.0005C18.8005 26.5026 18.9914 26.984 19.3269 27.3578C19.5044 27.5503 19.7198 27.7039 19.9597 27.809C20.1995 27.914 20.4585 27.9683 20.7203 27.9683C20.9821 27.9683 21.2411 27.914 21.4809 27.809C21.7207 27.7039 21.9362 27.5503 22.1137 27.3578C22.1432 27.3278 22.1695 27.2948 22.1922 27.2593L24.7381 23.3371V27.4834L22.5922 38.052C22.4991 38.5412 22.6024 39.0473 22.8796 39.461C23.1568 39.8746 23.5857 40.1625 24.0735 40.2624L24.277 40.2991C24.5096 40.3387 24.7477 40.3319 24.9777 40.2789C25.2076 40.226 25.4248 40.128 25.6166 39.9906C26.0339 39.6923 26.3175 39.242 26.4062 38.7367L28.3846 29.4683H30.4327L32.2167 39.2358C32.2667 39.4316 32.3574 39.6147 32.4828 39.7733C32.6081 39.9318 32.7654 40.0623 32.9444 40.1561C33.3169 40.3539 33.7335 40.4539 34.1552 40.4466C34.4113 40.4488 34.6664 40.4129 34.912 40.3403C35.9424 40.0183 36.1756 38.5492 35.9572 37.6508L34.1037 27.4898V18.2099L40.195 11.2543C40.2092 11.2382 40.2227 11.2215 40.2349 11.2047C40.5927 10.6854 40.7402 10.0497 40.6478 9.42588C40.6143 9.23283 40.5407 9.04895 40.4318 8.8861C40.3228 8.72326 40.181 8.58506 40.0153 8.48043C39.1053 7.90788 37.8514 8.4727 37.3477 9.12447L33.5247 13.0621C33.4819 12.0513 33.0409 11.0985 32.298 10.4117C31.5551 9.72488 30.5706 9.35993 29.5596 9.39651C28.5485 9.43309 27.593 9.86822 26.9016 10.6069C26.2103 11.3456 25.8393 12.3278 25.8697 13.339C25.8686 14.3071 26.2229 15.2419 26.8654 15.9661H26.6077C26.1793 15.9374 25.7499 16.0046 25.3507 16.1628C24.9515 16.321 24.5926 16.5662 24.3002 16.8806ZM29.7043 10.7043C30.391 10.717 31.0446 11.0015 31.5219 11.4954C31.9991 11.9893 32.261 12.6523 32.2502 13.339C32.2502 13.8861 32.0823 14.4201 31.7691 14.8686L31.1637 15.4914C30.758 15.7874 30.2719 15.9529 29.77 15.9661H29.6412C28.9656 15.9254 28.3317 15.6263 27.8707 15.1307C27.4098 14.6352 27.1573 13.9812 27.1656 13.3045C27.1739 12.6278 27.4423 11.9802 27.9152 11.4961C28.3881 11.012 29.0292 10.7284 29.7056 10.7043H29.7043ZM29.5703 17.2542C29.6154 17.2542 29.6592 17.2612 29.7043 17.2612C29.7494 17.2612 29.7932 17.2561 29.8376 17.2542H30.9737C31.0598 17.2545 31.145 17.2376 31.2245 17.2044C31.3039 17.1712 31.3758 17.1224 31.4361 17.0609L32.0235 16.4562C32.3026 16.2368 32.5507 15.9805 32.7609 15.6943L38.2996 9.99714C38.3232 9.97389 38.3447 9.94869 38.364 9.92179C38.5282 9.69315 39.0989 9.42717 39.3301 9.57336C39.3423 9.58109 39.3681 9.59719 39.3835 9.6777C39.4074 9.94311 39.3434 10.209 39.2013 10.4344L32.9753 17.5433C32.8724 17.6608 32.8156 17.8116 32.8156 17.9677V27.5478C32.8156 27.5867 32.819 27.6255 32.8259 27.6637L34.6975 37.9168C34.7534 38.1168 34.7669 38.3262 34.7372 38.5317C34.7074 38.7372 34.6351 38.9342 34.5249 39.1102C34.211 39.1959 33.8769 39.169 33.5807 39.0342C33.5451 39.0147 33.5112 38.9921 33.4796 38.9666L31.6074 28.7084C31.5803 28.5601 31.502 28.426 31.3862 28.3295C31.2704 28.233 31.1244 28.1802 30.9737 28.1802H27.8662C27.7188 28.1802 27.5758 28.2308 27.4611 28.3235C27.3465 28.4162 27.2671 28.5455 27.2363 28.6897L25.1451 38.4951C25.1175 38.6726 25.021 38.8321 24.8766 38.9389C24.7695 39.0174 24.6356 39.0503 24.5043 39.0303L24.3008 38.9943C24.15 38.956 24.0198 38.8609 23.9376 38.7289C23.8554 38.5968 23.8274 38.438 23.8596 38.2858L26.0146 27.6753C26.0231 27.6329 26.0274 27.5898 26.0275 27.5465V21.1615C26.0275 21.0226 25.9825 20.8874 25.8994 20.7761C25.8162 20.6649 25.6993 20.5834 25.5661 20.544C25.4329 20.5046 25.2905 20.5093 25.1602 20.5575C25.0299 20.6056 24.9187 20.6946 24.8431 20.8112L21.1515 26.4993C21.0938 26.5636 21.0227 26.6143 20.9431 26.6477C20.8635 26.6812 20.7774 26.6965 20.6912 26.6927C20.6049 26.6889 20.5206 26.666 20.4443 26.6256C20.368 26.5853 20.3015 26.5285 20.2498 26.4594C19.857 26.0556 20.2331 25.4785 20.3284 25.3439L25.2649 17.7359C25.4364 17.5582 25.6465 17.4223 25.8789 17.3388C26.1113 17.2552 26.3598 17.2263 26.6052 17.2542H29.5703Z" stroke="#01CD99" stroke-width="0.14732" mask="url(#path-2-outside-2_22_15596)"/>
<path d="M4.61659 6.91918C3.16223 6.91921 2.0037 7.77541 2.0037 8.88812C2.0037 10.0009 3.16228 10.8571 4.61668 10.8571C6.07108 10.8571 7.22966 10.0009 7.22966 8.88812V5.70476H11.7011C11.8817 5.70476 12.0548 5.63303 12.1825 5.50534C12.3102 5.37766 12.382 5.20447 12.382 5.0239V2.44775C12.382 2.26717 12.3102 2.09399 12.1825 1.9663C12.0548 1.83861 11.8817 1.76688 11.7011 1.76688H6.54879C6.36821 1.76688 6.19503 1.83861 6.06734 1.9663C5.93966 2.09399 5.86792 2.26717 5.86792 2.44775V4.37986V7.1586C5.47042 6.99858 5.04544 6.9172 4.61659 6.91918ZM4.61659 6.91918C4.61662 6.91918 4.61665 6.91918 4.61668 6.91918V6.95601L4.61651 6.91918C4.61653 6.91918 4.61656 6.91918 4.61659 6.91918ZM7.22966 3.12862H11.0202V4.34303H7.22966V3.12862ZM4.61668 8.28091C5.00346 8.28091 5.31906 8.37454 5.53684 8.49905C5.64579 8.56135 5.72941 8.63087 5.78537 8.69939C5.84166 8.76831 5.86792 8.83357 5.86792 8.88812C5.86792 8.94234 5.84175 9.00744 5.78554 9.07632C5.72967 9.14478 5.64617 9.21435 5.53729 9.27672C5.31968 9.40138 5.00409 9.49533 4.61668 9.49533C4.22927 9.49533 3.91367 9.40138 3.69606 9.27672C3.58718 9.21435 3.50368 9.14478 3.44782 9.07632C3.3916 9.00744 3.36543 8.94234 3.36543 8.88812C3.36543 8.8339 3.3916 8.7688 3.44782 8.69992C3.50368 8.63146 3.58718 8.56189 3.69606 8.49952C3.91367 8.37486 4.22927 8.28091 4.61668 8.28091Z" fill="#01CD99" stroke="#01CD99" stroke-width="0.07366"/>
</svg>
